<svg width="20" height="21" viewBox="0 0 20 21" fill="none" xmlns="http://www.w3.org/2000/svg">
<g clip-path="url(#clip0_20_157)">
<path d="M10 2.30078C12.6719 2.30078 12.9883 2.3125 14.0391 2.35937C15.0156 2.40234 15.543 2.56641 15.8945 2.70313C16.3594 2.88281 16.6953 3.10156 17.043 3.44922C17.3945 3.80078 17.6094 4.13281 17.7891 4.59766C17.9258 4.94922 18.0898 5.48047 18.1328 6.45312C18.1797 7.50781 18.1914 7.82422 18.1914 10.4922C18.1914 13.1641 18.1797 13.4805 18.1328 14.5313C18.0898 15.5078 17.9258 16.0352 17.7891 16.3867C17.6094 16.8516 17.3906 17.1875 17.043 17.5352C16.6914 17.8867 16.3594 18.1016 15.8945 18.2813C15.543 18.418 15.0117 18.582 14.0391 18.625C12.9844 18.6719 12.668 18.6836 10 18.6836C7.32813 18.6836 7.01172 18.6719 5.96094 18.625C4.98438 18.582 4.45703 18.418 4.10547 18.2813C3.64063 18.1016 3.30469 17.8828 2.95703 17.5352C2.60547 17.1836 2.39063 16.8516 2.21094 16.3867C2.07422 16.0352 1.91016 15.5039 1.86719 14.5313C1.82031 13.4766 1.80859 13.1602 1.80859 10.4922C1.80859 7.82031 1.82031 7.50391 1.86719 6.45312C1.91016 5.47656 2.07422 4.94922 2.21094 4.59766C2.39063 4.13281 2.60938 3.79688 2.95703 3.44922C3.30859 3.09766 3.64063 2.88281 4.10547 2.70313C4.45703 2.56641 4.98828 2.40234 5.96094 2.35937C7.01172 2.3125 7.32813 2.30078 10 2.30078ZM10 0.5C7.28516 0.5 6.94531 0.511719 5.87891 0.558594C4.81641 0.605469 4.08594 0.777344 3.45313 1.02344C2.79297 1.28125 2.23438 1.62109 1.67969 2.17969C1.12109 2.73438 0.78125 3.29297 0.523438 3.94922C0.277344 4.58594 0.105469 5.3125 0.0585938 6.375C0.0117188 7.44531 0 7.78516 0 10.5C0 13.2148 0.0117188 13.5547 0.0585938 14.6211C0.105469 15.6836 0.277344 16.4141 0.523438 17.0469C0.78125 17.707 1.12109 18.2656 1.67969 18.8203C2.23438 19.375 2.79297 19.7188 3.44922 19.9727C4.08594 20.2188 4.8125 20.3906 5.875 20.4375C6.94141 20.4844 7.28125 20.4961 9.99609 20.4961C12.7109 20.4961 13.0508 20.4844 14.1172 20.4375C15.1797 20.3906 15.9102 20.2188 16.543 19.9727C17.1992 19.7188 17.7578 19.375 18.3125 18.8203C18.8672 18.2656 19.2109 17.707 19.4648 17.0508C19.7109 16.4141 19.8828 15.6875 19.9297 14.625C19.9766 13.5586 19.9883 13.2188 19.9883 10.5039C19.9883 7.78906 19.9766 7.44922 19.9297 6.38281C19.8828 5.32031 19.7109 4.58984 19.4648 3.95703C19.2188 3.29297 18.8789 2.73438 18.3203 2.17969C17.7656 1.625 17.207 1.28125 16.5508 1.02734C15.9141 0.78125 15.1875 0.609375 14.125 0.5625C13.0547 0.511719 12.7148 0.5 10 0.5Z" fill="white"/>
<path d="M10 5.36328C7.16406 5.36328 4.86328 7.66406 4.86328 10.5C4.86328 13.3359 7.16406 15.6367 10 15.6367C12.8359 15.6367 15.1367 13.3359 15.1367 10.5C15.1367 7.66406 12.8359 5.36328 10 5.36328ZM10 13.832C8.16016 13.832 6.66797 12.3398 6.66797 10.5C6.66797 8.66016 8.16016 7.16797 10 7.16797C11.8398 7.16797 13.332 8.66016 13.332 10.5C13.332 12.3398 11.8398 13.832 10 13.832Z" fill="white"/>
<path d="M16.5391 5.16016C16.5391 5.82422 16 6.35938 15.3398 6.35938C14.6758 6.35938 14.1406 5.82032 14.1406 5.16016C14.1406 4.49609 14.6797 3.96094 15.3398 3.96094C16 3.96094 16.5391 4.5 16.5391 5.16016Z" fill="white"/>
</g>
<defs>
<clipPath id="clip0_20_157">
<rect width="20" height="20" fill="white" transform="translate(0 0.5)"/>
</clipPath>
</defs>
</svg>
