<svg width="20" height="20" viewBox="0 0 20 20" fill="none" xmlns="http://www.w3.org/2000/svg">
<path d="M6.2896 18.1256C13.8368 18.1256 17.9648 11.8728 17.9648 6.45035C17.9648 6.27275 17.9648 6.09595 17.9528 5.91995C18.7559 5.33908 19.4491 4.61986 20 3.79595C19.2512 4.12795 18.4567 4.34558 17.6432 4.44155C18.4998 3.92879 19.141 3.1222 19.4472 2.17195C18.6417 2.64996 17.7605 2.98681 16.8416 3.16795C16.2229 2.5101 15.4047 2.07449 14.5135 1.92852C13.6223 1.78256 12.7078 1.93438 11.9116 2.3605C11.1154 2.78661 10.4819 3.46326 10.109 4.28574C9.73605 5.10822 9.64462 6.03067 9.8488 6.91035C8.21741 6.82852 6.62146 6.40455 5.16455 5.66596C3.70763 4.92737 2.4223 3.89067 1.392 2.62315C0.867274 3.52648 0.70656 4.59584 0.942583 5.6135C1.17861 6.63117 1.79362 7.52061 2.6624 8.10075C2.00936 8.08162 1.37054 7.90545 0.8 7.58715V7.63915C0.800259 8.58653 1.12821 9.50465 1.72823 10.2378C2.32824 10.9709 3.16338 11.474 4.092 11.6616C3.4879 11.8263 2.85406 11.8504 2.2392 11.732C2.50151 12.5472 3.01202 13.2602 3.69937 13.7711C4.38671 14.282 5.21652 14.5654 6.0728 14.5816C5.22203 15.2503 4.24776 15.7447 3.20573 16.0366C2.16369 16.3284 1.07435 16.4119 0 16.2824C1.87653 17.4865 4.05994 18.1253 6.2896 18.1224" fill="white"/>
</svg>
