<svg width="87" height="89" viewBox="0 0 87 89" fill="none" xmlns="http://www.w3.org/2000/svg">
<path d="M73.9737 18.8381L74.6074 21.0385C74.6831 21.3016 74.6992 21.5811 74.6544 21.8529C74.6096 22.1248 74.5052 22.381 74.3501 22.5996L73.0486 24.4216C72.8695 24.6728 72.7581 24.9734 72.7271 25.2895C72.6961 25.6055 72.7466 25.9245 72.8731 26.2102C72.9995 26.496 73.1968 26.7371 73.4426 26.9065C73.6884 27.0758 73.973 27.1666 74.2641 27.1686L76.3768 27.1822C76.6299 27.1839 76.8785 27.2527 77.1014 27.3828C77.3242 27.5128 77.5146 27.7001 77.656 27.9286L78.8414 29.8357C79.0044 30.0983 79.2315 30.3056 79.4972 30.4343C79.7628 30.5631 80.0564 30.608 80.3448 30.5642C80.6332 30.5204 80.9049 30.3894 81.1292 30.1862C81.3536 29.983 81.5216 29.7156 81.6144 29.4142L82.2864 27.2241C82.3666 26.9618 82.504 26.7246 82.6869 26.533C82.8697 26.3413 83.0923 26.201 83.3356 26.1241L85.3676 25.4795C85.6473 25.3905 85.8989 25.218 86.0939 24.9815C86.289 24.745 86.4198 24.454 86.4716 24.1412C86.5233 23.8285 86.494 23.5065 86.3869 23.2116C86.2797 22.9166 86.0991 22.6606 85.8653 22.4723L84.1672 21.1057C83.9641 20.9418 83.8006 20.7266 83.6906 20.4784C83.5806 20.2302 83.5274 19.9564 83.5355 19.6805L83.6083 17.3726C83.6183 17.055 83.5467 16.741 83.4016 16.466C83.2564 16.1911 83.0436 15.9662 82.7871 15.8168C82.5306 15.6674 82.2407 15.5994 81.9502 15.6205C81.6596 15.6416 81.3799 15.7509 81.1427 15.9361L79.4224 17.2821C79.2155 17.4415 78.9763 17.5435 78.7254 17.5792C78.4746 17.6149 78.2198 17.5833 77.9832 17.487L75.9945 16.7071C75.7198 16.5975 75.4221 16.5746 75.1355 16.6412C74.8489 16.7077 74.585 16.861 74.3741 17.0835C74.1631 17.3059 74.0137 17.5885 73.9429 17.8989C73.8721 18.2092 73.8828 18.5347 73.9737 18.8381Z" fill="#42449C"/>
<path d="M15.2898 65.6716L15.9328 67.8704C16.0098 68.1335 16.0265 68.4134 15.9817 68.6857C15.9368 68.9579 15.8316 69.2143 15.6753 69.4325L14.3729 71.2588C14.1937 71.5102 14.0822 71.811 14.0512 72.1273C14.0201 72.4435 14.0707 72.7627 14.1973 73.0486C14.3238 73.3345 14.5212 73.5759 14.7672 73.7453C15.0131 73.9148 15.2979 74.0056 15.5892 74.0076L17.7062 74.0213C17.9593 74.0218 18.2082 74.0898 18.4313 74.2194C18.6544 74.349 18.8449 74.5363 18.9863 74.7649L20.1606 76.6763C20.3237 76.939 20.551 77.1465 20.8168 77.2753C21.0826 77.4041 21.3764 77.4491 21.665 77.4052C21.9536 77.3613 22.2254 77.2303 22.4499 77.027C22.6744 76.8237 22.8425 76.5561 22.9354 76.2545L23.6079 74.0597C23.6886 73.7976 23.8262 73.5605 24.0091 73.3688C24.192 73.1771 24.4146 73.0365 24.6578 72.959L26.6911 72.314C26.9709 72.2249 27.2226 72.0524 27.4178 71.8157C27.613 71.5791 27.7439 71.2879 27.7957 70.9749C27.8475 70.662 27.8181 70.3397 27.7109 70.0446C27.6038 69.7495 27.423 69.4933 27.1891 69.3049L25.4899 67.9374C25.2863 67.7738 25.1224 67.5586 25.0123 67.3101C24.9022 67.0617 24.8492 66.7875 24.8578 66.5113L24.9306 64.2019C24.9402 63.8846 24.8684 63.5711 24.7233 63.2965C24.5782 63.022 24.3656 62.7973 24.1095 62.648C23.8534 62.4986 23.5638 62.4303 23.2735 62.4509C22.9832 62.4716 22.7037 62.5802 22.4664 62.7646L20.742 64.1114C20.5359 64.2728 20.2971 64.3773 20.0462 64.4158C19.7952 64.4543 19.5397 64.4257 19.3016 64.3324L17.3117 63.5489C17.0378 63.4416 16.7416 63.4202 16.4566 63.487C16.1715 63.5539 15.909 63.7063 15.6987 63.9271C15.4884 64.1479 15.3387 64.4283 15.2664 64.7366C15.1941 65.0448 15.2022 65.3687 15.2898 65.6716Z" fill="#42449C"/>
<path d="M2.3592 25.3982L2.99388 27.5994C3.07026 27.8626 3.08649 28.1424 3.04118 28.4145C2.99586 28.6865 2.89036 28.9427 2.73385 29.1605L1.43437 30.9849C1.25565 31.2361 1.1446 31.5366 1.11375 31.8524C1.08289 32.1682 1.13344 32.4869 1.25972 32.7724C1.386 33.0579 1.583 33.299 1.82847 33.4684C2.07395 33.6379 2.35815 33.7289 2.64905 33.7314L4.7594 33.7431C5.0127 33.7442 5.26167 33.813 5.48467 33.9432C5.70766 34.0735 5.89791 34.2614 6.03887 34.4905L7.22114 36.3994C7.38438 36.6618 7.61174 36.8689 7.87755 36.9974C8.14336 37.1259 8.43703 37.1706 8.72545 37.1265C9.01386 37.0823 9.28553 36.9512 9.50977 36.7478C9.73402 36.5443 9.90192 36.2767 9.99452 35.9752L10.6717 33.7851C10.7511 33.5224 10.8883 33.2847 11.0712 33.0929C11.2541 32.9011 11.4772 32.7611 11.7209 32.6851L13.7531 32.0387C14.0328 31.9499 14.2845 31.7775 14.4798 31.5412C14.6751 31.3048 14.8061 31.0138 14.8581 30.7011C14.9101 30.3883 14.8811 30.0662 14.7742 29.7711C14.6673 29.476 14.4868 29.2197 14.2532 29.0311L12.5535 27.6647C12.3494 27.5018 12.1851 27.2867 12.0748 27.0382C11.9646 26.7898 11.9117 26.5155 11.9208 26.2392L11.9952 23.9371C12.0061 23.6192 11.935 23.3047 11.7901 23.0292C11.6452 22.7538 11.4322 22.5285 11.1755 22.379C10.9187 22.2294 10.6284 22.1617 10.3375 22.1834C10.0466 22.205 9.76689 22.3153 9.53006 22.5016L7.80755 23.8453C7.6018 24.0072 7.3631 24.1119 7.1122 24.1504C6.8613 24.1888 6.60581 24.1599 6.36794 24.0659L4.37858 23.285C4.10562 23.1778 3.81034 23.156 3.52611 23.2222C3.24187 23.2885 2.97997 23.44 2.76997 23.6598C2.55997 23.8795 2.41022 24.1588 2.33764 24.466C2.26505 24.7731 2.27253 25.096 2.3592 25.3982Z" fill="#ED2324"/>
<path d="M49.4689 87.9764C46.9393 87.9256 44.9337 85.6462 44.9891 82.8854C45.0446 80.1245 47.1402 77.9276 49.6698 77.9784C52.1994 78.0292 54.205 80.3086 54.1496 83.0694C54.0941 85.8303 51.9985 88.0272 49.4689 87.9764Z" fill="#F7991D"/>
<path d="M28.9213 15.9274L33.4666 0.637267L38.2826 6.11352L33.7373 21.4006L28.9213 15.9274Z" fill="#ED2324"/>
<path d="M39.2415 64.5541C39.2415 64.5541 38.1416 64.4992 29.9725 62.1583C21.8035 59.8174 19.3765 51.7465 18.9606 49.7884C18.5446 47.8303 18.072 43.7661 18.8222 40.2181C19.5724 36.6701 21.6265 31.5673 27.669 27.3082C33.7115 23.049 41.5823 22.2958 41.5823 22.2958C41.5823 22.2958 46.2215 18.2726 50.4923 19.3571C54.763 20.4415 59.4839 25.4104 61.0229 27.103C62.5618 28.7955 63.1321 31.7398 63.1321 31.7398C63.1321 31.7398 63.962 32.3521 66.3468 32.3131C67.911 32.2488 69.4536 31.885 70.9044 31.2385L68.0919 33.9205L69.6547 37.4738C69.6547 37.4738 67.115 35.318 66.4978 34.8431C65.8807 34.3683 62.6819 34.0588 62.6819 34.0588C62.6819 34.0588 62.5253 34.6224 61.4043 35.9614C60.2832 37.3003 56.688 38.9346 50.2934 40.7449C43.8988 42.5552 40.5688 37.1625 39.9852 36.1475C39.4017 35.1324 39.1021 34.7813 38.6896 34.8597C36.9357 35.0914 35.268 35.8268 33.8568 36.9908C32.4456 38.1548 31.3415 39.7057 30.6572 41.485C30.6572 41.485 29.0934 45.5681 31.3465 48.3736C33.5997 51.1791 41.4287 53.4864 44.1568 54.4008C50.12 56.3969 55.1686 61.5367 57.5565 69.7899C59.9445 78.043 58.2222 80.9689 58.2222 80.9689C58.2222 80.9689 50.2325 67.5645 39.2415 64.5541Z" fill="#42449C"/>
<path d="M49.7382 36.5212C48.2681 36.1135 47.2807 34.9216 47.5326 33.8591C47.7846 32.7966 49.1806 32.2659 50.6507 32.6736C52.1207 33.0814 53.1082 34.2733 52.8563 35.3358C52.6043 36.3983 51.2083 36.929 49.7382 36.5212Z" fill="white"/>
</svg>
