<svg width="378" height="400" viewBox="0 0 378 400" fill="none" xmlns="http://www.w3.org/2000/svg">
<path d="M320.227 306.631C370.757 282.739 405.523 155.153 276.563 123.737" stroke="#ED2324" stroke-width="6" stroke-linecap="round" stroke-dasharray="26 26"/>
<path d="M110.369 91.1723C89.4981 103.896 46.5968 140.643 60.6634 180.148C73.5709 216.397 120.256 220.573 142.224 202.392C158.152 189.21 169.998 149.143 145.794 129.893C86.7521 82.9338 -9.04037 116.712 4.64194 216.397C11.7281 268.025 74.9437 306.196 125.473 297.408" stroke="#43449C" stroke-width="6" stroke-linecap="round" stroke-dasharray="26 26"/>
<path d="M229 349.09L288.098 274L303.22 298.682L300.266 307.721L307.74 305.809L350.847 334.141L229 349.09Z" fill="#ED2324"/>
<path d="M229 349.09L303.22 298.682L300.266 307.721L307.74 305.809L229 349.09Z" fill="#C01E1E"/>
<path d="M118.259 85.2572L114.42 61.2649L96.1406 44.7248L215.873 26.9123L153.539 102.706L131.055 77.8213L118.259 85.2572Z" fill="#43449C"/>
<path d="M122.829 68.7171L118.259 85.2572L131.055 77.8213L122.829 68.7171Z" fill="#0A0A47"/>
<path d="M118.259 85.2572L114.42 61.2649L215.872 26.9123L122.829 68.7171L118.259 85.2572Z" fill="#7172CA"/>
<path d="M221.663 208.807C171.865 221.376 153.207 251.359 150.103 264.779C168.238 277.708 206.175 303.566 212.841 303.566C240.289 248.085 263.816 241.212 271.168 237.775C278.52 234.338 298.126 237.775 293.224 229.919C288.323 222.063 229.015 206.352 221.663 208.807Z" fill="#F7991D"/>
<path d="M231.389 217.337C236.854 218.859 249.887 223.077 258.301 227.773" stroke="#FDB556" stroke-width="4" stroke-linecap="round"/>
<path d="M215.46 222.28C220.925 223.802 233.958 228.02 242.372 232.716" stroke="#FDB556" stroke-width="4" stroke-linecap="round"/>
<path d="M203.927 229.42C209.392 230.942 222.425 235.16 230.839 239.856" stroke="#FDB556" stroke-width="4" stroke-linecap="round"/>
<path d="M192.942 238.208C198.407 239.73 211.441 243.947 219.855 248.643" stroke="#FDB556" stroke-width="4" stroke-linecap="round"/>
<path d="M194.59 273.908C197.601 274.629 204.783 276.627 209.419 278.851" stroke="#FDB556" stroke-width="4" stroke-linecap="round"/>
<path d="M200.082 268.416C203.093 269.217 210.275 271.436 214.911 273.908" stroke="#FDB556" stroke-width="4" stroke-linecap="round"/>
<path d="M226.85 211.179C226.85 211.179 228.761 211.816 244.116 213.536C259.472 215.256 268.491 204.276 270.384 201.499C272.277 198.722 275.54 192.7 276.404 186.68C277.268 180.659 276.847 171.36 269.109 160.755C261.372 150.15 248.395 143.806 248.395 143.806C248.395 143.806 242.91 134.49 234.966 133.374C227.022 132.257 215.963 136.897 212.314 138.523C208.665 140.149 205.912 144.361 205.912 144.361C205.912 144.361 204.126 144.77 200.08 143.142C197.449 142.014 195.037 140.434 192.952 138.474L196.13 144.5L191.316 149.009C191.316 149.009 196.953 147.319 198.293 146.985C199.633 146.65 205.279 148.27 205.279 148.27C205.279 148.27 205.206 149.25 206.31 152.073C207.413 154.896 212.561 159.804 222.379 166.825C232.198 173.846 241.14 167.633 242.749 166.435C244.358 165.237 245.082 164.886 245.738 165.28C248.591 166.793 250.993 169.034 252.698 171.775C254.403 174.515 255.349 177.657 255.442 180.878C255.442 180.878 255.643 188.267 250.102 191.157C244.562 194.048 229.807 192.499 224.599 192.131C213.216 191.324 201.494 196.014 192.431 207.303C183.368 218.592 184.539 224.282 184.539 224.282C184.539 224.282 206.275 208.648 226.85 211.179Z" fill="#43449C"/>
<path d="M228.329 164.255C230.325 164.893 232.285 164.338 232.705 163.016C233.126 161.694 231.848 160.105 229.852 159.467C227.855 158.83 225.895 159.384 225.475 160.706C225.054 162.028 226.332 163.617 228.329 164.255Z" fill="white"/>
<path d="M321.327 203.375C328.303 203.375 333.959 197.597 333.959 190.468C333.959 183.34 328.303 177.562 321.327 177.562C314.35 177.562 308.694 183.34 308.694 190.468C308.694 197.597 314.35 203.375 321.327 203.375Z" fill="#43449C"/>
<path d="M252.124 400C259.1 400 264.756 394.221 264.756 387.093C264.756 379.965 259.1 374.186 252.124 374.186C245.147 374.186 239.491 379.965 239.491 387.093C239.491 394.221 245.147 400 252.124 400Z" fill="#F7991D"/>
<path d="M73 96C77.4183 96 81 92.4183 81 88C81 83.5817 77.4183 80 73 80C68.5817 80 65 83.5817 65 88C65 92.4183 68.5817 96 73 96Z" fill="#ED2324"/>
<path d="M39.6253 209.866L38.3566 213.617C38.2051 214.066 38.1644 214.544 38.238 215.012C38.3117 215.48 38.4975 215.923 38.7795 216.303L41.1467 219.472C41.4725 219.909 41.6696 220.428 41.7158 220.971C41.762 221.514 41.6553 222.059 41.408 222.545C41.1606 223.031 40.7823 223.437 40.3159 223.719C39.8495 224.001 39.3135 224.147 38.7685 224.14L34.8141 224.091C34.3404 224.085 33.8725 224.195 33.4505 224.41C33.0286 224.625 32.6653 224.94 32.392 225.327L30.1017 228.556C29.7868 229.001 29.354 229.349 28.8519 229.56C28.3499 229.772 27.7988 229.839 27.2607 229.754C26.7226 229.668 26.219 229.435 25.8068 229.078C25.3946 228.722 25.0902 228.258 24.9279 227.738L23.7526 223.959C23.6123 223.507 23.364 223.095 23.0291 222.76C22.6942 222.425 22.2827 222.177 21.8303 222.037L18.0515 220.862C17.5315 220.699 17.0672 220.395 16.711 219.983C16.3548 219.57 16.121 219.067 16.0359 218.529C15.9508 217.991 16.0178 217.439 16.2294 216.937C16.4409 216.435 16.7886 216.003 17.2332 215.688L20.4627 213.403C20.8489 213.129 21.163 212.766 21.3782 212.344C21.5934 211.922 21.7033 211.454 21.6984 210.981L21.649 207.021C21.6423 206.476 21.7882 205.94 22.0701 205.474C22.352 205.007 22.7588 204.629 23.2444 204.381C23.73 204.134 24.2752 204.027 24.8182 204.074C25.3613 204.12 25.8806 204.317 26.3175 204.643L29.4865 207.01C29.8677 207.29 30.3116 207.474 30.7797 207.543C31.2477 207.613 31.7258 207.568 32.1723 207.411L35.9235 206.142C36.4417 205.964 36.9997 205.935 37.5336 206.059C38.0675 206.183 38.5556 206.455 38.942 206.843C39.3284 207.232 39.5975 207.722 39.7184 208.256C39.8392 208.791 39.807 209.349 39.6253 209.866Z" fill="#42449C"/>
<path d="M332.625 250.804L331.34 254.55C331.186 254.998 331.144 255.477 331.218 255.945C331.292 256.413 331.479 256.856 331.763 257.236L334.13 260.41C334.456 260.847 334.653 261.366 334.699 261.909C334.746 262.453 334.639 262.998 334.391 263.483C334.144 263.969 333.766 264.376 333.299 264.658C332.833 264.94 332.297 265.085 331.752 265.079L327.792 265.029C327.319 265.021 326.851 265.129 326.428 265.344C326.006 265.558 325.643 265.873 325.37 266.26L323.102 269.494C322.787 269.939 322.354 270.287 321.852 270.498C321.35 270.71 320.799 270.777 320.261 270.692C319.723 270.607 319.219 270.373 318.807 270.017C318.395 269.66 318.09 269.196 317.928 268.676L316.753 264.892C316.611 264.44 316.363 264.029 316.028 263.694C315.693 263.359 315.282 263.111 314.83 262.97L311.052 261.794C310.532 261.632 310.067 261.328 309.711 260.915C309.355 260.503 309.121 260 309.036 259.462C308.951 258.923 309.018 258.372 309.229 257.87C309.441 257.368 309.789 256.935 310.233 256.621L313.463 254.336C313.85 254.062 314.164 253.699 314.379 253.277C314.595 252.855 314.704 252.387 314.698 251.914L314.649 247.954C314.643 247.41 314.789 246.875 315.071 246.409C315.353 245.944 315.759 245.566 316.243 245.319C316.728 245.072 317.272 244.965 317.814 245.01C318.356 245.055 318.875 245.251 319.312 245.575L322.487 247.943C322.866 248.226 323.309 248.414 323.777 248.488C324.244 248.563 324.723 248.523 325.172 248.371L328.924 247.097C329.44 246.923 329.995 246.896 330.525 247.02C331.056 247.145 331.541 247.415 331.926 247.801C332.311 248.186 332.581 248.672 332.704 249.203C332.828 249.733 332.8 250.288 332.625 250.804Z" fill="#ED2324"/>
<path d="M142.881 147.804L141.596 151.55C141.442 151.998 141.4 152.477 141.474 152.945C141.548 153.413 141.735 153.856 142.019 154.236L144.386 157.41C144.712 157.847 144.909 158.366 144.955 158.909C145.001 159.453 144.895 159.998 144.647 160.483C144.4 160.969 144.022 161.376 143.555 161.658C143.089 161.94 142.553 162.085 142.008 162.079L138.048 162.029C137.575 162.021 137.106 162.129 136.684 162.344C136.262 162.558 135.899 162.873 135.626 163.26L133.358 166.494C133.043 166.939 132.61 167.287 132.108 167.498C131.606 167.71 131.055 167.777 130.517 167.692C129.978 167.607 129.475 167.373 129.063 167.017C128.65 166.66 128.346 166.196 128.184 165.676L127.008 161.892C126.867 161.44 126.619 161.029 126.284 160.694C125.949 160.359 125.538 160.111 125.086 159.97L121.307 158.794C120.787 158.632 120.323 158.328 119.967 157.915C119.611 157.503 119.377 157 119.292 156.462C119.207 155.923 119.274 155.372 119.485 154.87C119.697 154.368 120.044 153.935 120.489 153.621L123.719 151.336C124.105 151.062 124.42 150.699 124.635 150.277C124.851 149.855 124.96 149.387 124.954 148.914L124.905 144.954C124.899 144.41 125.045 143.875 125.327 143.409C125.608 142.944 126.014 142.566 126.499 142.319C126.984 142.072 127.528 141.965 128.07 142.01C128.612 142.055 129.131 142.251 129.568 142.575L132.742 144.943C133.122 145.226 133.565 145.414 134.032 145.488C134.5 145.563 134.979 145.523 135.428 145.371L139.179 144.097C139.696 143.923 140.25 143.896 140.781 144.02C141.312 144.145 141.797 144.415 142.182 144.801C142.567 145.186 142.837 145.672 142.96 146.203C143.084 146.733 143.056 147.288 142.881 147.804Z" fill="#F7991D"/>
<path d="M256.155 101.131L285.154 89.9373L273.988 80.3477L244.983 91.541L256.155 101.131Z" fill="#F7991D"/>
<path d="M156.195 335.103L185.194 323.91L174.028 314.32L145.023 325.513L156.195 335.103Z" fill="#F7991D"/>
<path d="M352.011 326L378 315.767L367.993 307L342 317.233L352.011 326Z" fill="#43449C"/>
<path d="M17.8991 117L41 108.383L32.1053 101L9 109.617L17.8991 117Z" fill="#43449C"/>
<path d="M67.1714 258.783L96.1707 247.59L85.0049 238L56 249.193L67.1714 258.783Z" fill="#ED2324"/>
<path d="M153.448 20.7829L182.447 9.58956L171.281 0L142.276 11.1933L153.448 20.7829Z" fill="#ED2324"/>
</svg>
