<svg width="32" height="32" viewBox="0 0 32 32" fill="none" xmlns="http://www.w3.org/2000/svg">
<path fill-rule="evenodd" clip-rule="evenodd" d="M16.4025 23.8044C18.1914 22.8962 25.3333 18.8418 25.3333 12C25.3333 6.84533 21.1547 2.66666 16 2.66666C10.8453 2.66666 6.66666 6.84533 6.66666 12C6.66666 18.8418 13.8086 22.8962 15.5975 23.8044C15.8515 23.9334 16.1485 23.9334 16.4025 23.8044ZM16 16C18.2091 16 20 14.2091 20 12C20 9.79085 18.2091 7.99999 16 7.99999C13.7909 7.99999 12 9.79085 12 12C12 14.2091 13.7909 16 16 16Z" fill="black"/>
<path d="M24.0829 22C24.9021 22.6081 25.3333 23.2979 25.3333 24C25.3333 24.7021 24.9021 25.3919 24.0829 26C23.2637 26.6081 22.0855 27.113 20.6667 27.4641C19.2478 27.8152 17.6383 28 16 28C14.3617 28 12.7522 27.8152 11.3333 27.4641C9.91449 27.113 8.73627 26.6081 7.91709 26C7.09792 25.3919 6.66666 24.7021 6.66666 24C6.66666 23.2979 7.09792 22.6081 7.91709 22" stroke="black" stroke-width="2" stroke-linecap="round"/>
</svg>
