<svg width="396" height="189" viewBox="0 0 396 189" fill="none" xmlns="http://www.w3.org/2000/svg">
<rect x="185" y="10" width="211" height="47" rx="20" fill="#F7991D"/>
<path d="M215.01 37.2012C215.01 38.0475 214.798 38.7702 214.375 39.3691C213.958 39.9616 213.372 40.4141 212.617 40.7266C211.862 41.0391 210.973 41.1953 209.951 41.1953C209.411 41.1953 208.9 41.1693 208.418 41.1172C207.936 41.0651 207.493 40.9902 207.09 40.8926C206.686 40.7949 206.331 40.6745 206.025 40.5312V38.9395C206.514 39.1413 207.109 39.3301 207.812 39.5059C208.516 39.6751 209.251 39.7598 210.02 39.7598C210.736 39.7598 211.341 39.6654 211.836 39.4766C212.331 39.2812 212.705 39.0046 212.959 38.6465C213.219 38.2819 213.35 37.8457 213.35 37.3379C213.35 36.8496 213.242 36.4427 213.027 36.1172C212.812 35.7852 212.454 35.4857 211.953 35.2188C211.458 34.9453 210.781 34.6556 209.922 34.3496C209.316 34.1348 208.783 33.9004 208.32 33.6465C207.858 33.3861 207.471 33.0931 207.158 32.7676C206.846 32.4421 206.608 32.0645 206.445 31.6348C206.289 31.2051 206.211 30.7135 206.211 30.1602C206.211 29.3984 206.403 28.7474 206.787 28.207C207.178 27.6602 207.715 27.2435 208.398 26.957C209.089 26.6641 209.88 26.5176 210.771 26.5176C211.533 26.5176 212.236 26.5892 212.881 26.7324C213.532 26.8757 214.128 27.0677 214.668 27.3086L214.15 28.7344C213.636 28.5195 213.089 28.3405 212.51 28.1973C211.937 28.054 211.344 27.9824 210.732 27.9824C210.12 27.9824 209.603 28.0736 209.18 28.2559C208.763 28.4316 208.444 28.6823 208.223 29.0078C208.001 29.3333 207.891 29.7207 207.891 30.1699C207.891 30.6712 207.995 31.0879 208.203 31.4199C208.418 31.752 208.757 32.0482 209.219 32.3086C209.688 32.5625 210.306 32.8294 211.074 33.1094C211.914 33.4154 212.627 33.7409 213.213 34.0859C213.799 34.4245 214.245 34.8411 214.551 35.3359C214.857 35.8242 215.01 36.446 215.01 37.2012ZM226.944 35.6289C226.944 36.5078 226.83 37.2923 226.602 37.9824C226.374 38.6725 226.046 39.2552 225.616 39.7305C225.186 40.2057 224.665 40.5703 224.053 40.8242C223.448 41.0716 222.761 41.1953 221.993 41.1953C221.277 41.1953 220.619 41.0716 220.02 40.8242C219.428 40.5703 218.913 40.2057 218.477 39.7305C218.048 39.2552 217.712 38.6725 217.471 37.9824C217.237 37.2923 217.12 36.5078 217.12 35.6289C217.12 34.457 217.318 33.4609 217.716 32.6406C218.113 31.8138 218.679 31.1855 219.415 30.7559C220.157 30.3197 221.039 30.1016 222.061 30.1016C223.038 30.1016 223.891 30.3197 224.62 30.7559C225.356 31.1921 225.925 31.8236 226.329 32.6504C226.739 33.4707 226.944 34.4635 226.944 35.6289ZM218.8 35.6289C218.8 36.4883 218.913 37.2337 219.141 37.8652C219.369 38.4967 219.721 38.985 220.196 39.3301C220.671 39.6751 221.283 39.8477 222.032 39.8477C222.774 39.8477 223.383 39.6751 223.858 39.3301C224.34 38.985 224.695 38.4967 224.923 37.8652C225.15 37.2337 225.264 36.4883 225.264 35.6289C225.264 34.776 225.15 34.0404 224.923 33.4219C224.695 32.7969 224.343 32.3151 223.868 31.9766C223.393 31.638 222.777 31.4688 222.022 31.4688C220.909 31.4688 220.092 31.8366 219.571 32.5723C219.057 33.3079 218.8 34.3268 218.8 35.6289ZM234.64 30.1016C234.855 30.1016 235.08 30.1146 235.314 30.1406C235.548 30.1602 235.757 30.1895 235.939 30.2285L235.734 31.7324C235.558 31.6868 235.363 31.651 235.148 31.625C234.933 31.599 234.731 31.5859 234.542 31.5859C234.113 31.5859 233.706 31.6738 233.322 31.8496C232.944 32.0189 232.612 32.2663 232.326 32.5918C232.039 32.9108 231.815 33.2982 231.652 33.7539C231.489 34.2031 231.408 34.7044 231.408 35.2578V41H229.777V30.2969H231.124L231.3 32.2695H231.369C231.59 31.8724 231.857 31.5111 232.169 31.1855C232.482 30.8535 232.843 30.5898 233.253 30.3945C233.67 30.1992 234.132 30.1016 234.64 30.1016ZM242.854 30.1016C243.069 30.1016 243.293 30.1146 243.528 30.1406C243.762 30.1602 243.97 30.1895 244.153 30.2285L243.947 31.7324C243.772 31.6868 243.576 31.651 243.361 31.625C243.147 31.599 242.945 31.5859 242.756 31.5859C242.326 31.5859 241.919 31.6738 241.535 31.8496C241.158 32.0189 240.826 32.2663 240.539 32.5918C240.253 32.9108 240.028 33.2982 239.865 33.7539C239.703 34.2031 239.621 34.7044 239.621 35.2578V41H237.99V30.2969H239.338L239.514 32.2695H239.582C239.804 31.8724 240.07 31.5111 240.383 31.1855C240.695 30.8535 241.057 30.5898 241.467 30.3945C241.884 30.1992 242.346 30.1016 242.854 30.1016ZM244.515 30.2969H246.253L248.616 36.5078C248.753 36.8724 248.88 37.224 248.997 37.5625C249.114 37.8945 249.218 38.2135 249.309 38.5195C249.401 38.8255 249.472 39.1217 249.524 39.4082H249.593C249.684 39.0827 249.814 38.6562 249.983 38.1289C250.153 37.5951 250.335 37.0514 250.53 36.498L252.766 30.2969H254.515L249.856 42.5723C249.609 43.2298 249.319 43.8027 248.987 44.291C248.662 44.7793 248.265 45.1536 247.796 45.4141C247.327 45.681 246.761 45.8145 246.097 45.8145C245.791 45.8145 245.52 45.7949 245.286 45.7559C245.052 45.7233 244.85 45.6842 244.681 45.6387V44.3398C244.824 44.3724 244.996 44.4017 245.198 44.4277C245.406 44.4538 245.621 44.4668 245.843 44.4668C246.246 44.4668 246.595 44.3887 246.888 44.2324C247.187 44.0827 247.444 43.8613 247.659 43.5684C247.874 43.2754 248.059 42.9271 248.216 42.5234L248.802 41.0195L244.515 30.2969ZM257.533 26.7227L257.679 26.9375C257.562 27.4128 257.412 27.9238 257.23 28.4707C257.048 29.0111 256.849 29.5514 256.634 30.0918C256.42 30.6322 256.205 31.14 255.99 31.6152H254.798C254.896 31.2441 254.994 30.847 255.091 30.4238C255.196 30.0007 255.293 29.571 255.384 29.1348C255.476 28.6986 255.557 28.2754 255.629 27.8652C255.707 27.4551 255.772 27.0742 255.824 26.7227H257.533ZM265.151 41V26.7227H266.812V41H265.151ZM282.144 30.1016C283.323 30.1016 284.211 30.4108 284.81 31.0293C285.409 31.6413 285.709 32.6276 285.709 33.9883V41H284.107V34.0664C284.107 33.2005 283.918 32.5527 283.541 32.123C283.17 31.6868 282.616 31.4688 281.881 31.4688C280.845 31.4688 280.094 31.7682 279.625 32.3672C279.156 32.9661 278.922 33.8483 278.922 35.0137V41H277.31V34.0664C277.31 33.487 277.226 33.0052 277.056 32.6211C276.894 32.237 276.646 31.9505 276.314 31.7617C275.989 31.5664 275.575 31.4688 275.074 31.4688C274.364 31.4688 273.795 31.6152 273.365 31.9082C272.935 32.2012 272.623 32.6374 272.428 33.2168C272.239 33.7897 272.144 34.4961 272.144 35.3359V41H270.523V30.2969H271.832L272.076 31.8105H272.164C272.379 31.4395 272.649 31.127 272.974 30.873C273.3 30.6191 273.664 30.4271 274.068 30.2969C274.472 30.1667 274.901 30.1016 275.357 30.1016C276.171 30.1016 276.851 30.2546 277.398 30.5605C277.952 30.86 278.352 31.319 278.599 31.9375H278.687C279.039 31.319 279.521 30.86 280.133 30.5605C280.745 30.2546 281.415 30.1016 282.144 30.1016ZM303.523 35.6289C303.523 36.5078 303.409 37.2923 303.181 37.9824C302.953 38.6725 302.624 39.2552 302.195 39.7305C301.765 40.2057 301.244 40.5703 300.632 40.8242C300.027 41.0716 299.34 41.1953 298.571 41.1953C297.855 41.1953 297.198 41.0716 296.599 40.8242C296.006 40.5703 295.492 40.2057 295.056 39.7305C294.626 39.2552 294.291 38.6725 294.05 37.9824C293.816 37.2923 293.698 36.5078 293.698 35.6289C293.698 34.457 293.897 33.4609 294.294 32.6406C294.691 31.8138 295.258 31.1855 295.993 30.7559C296.736 30.3197 297.618 30.1016 298.64 30.1016C299.616 30.1016 300.469 30.3197 301.198 30.7559C301.934 31.1921 302.504 31.8236 302.907 32.6504C303.318 33.4707 303.523 34.4635 303.523 35.6289ZM295.378 35.6289C295.378 36.4883 295.492 37.2337 295.72 37.8652C295.948 38.4967 296.299 38.985 296.775 39.3301C297.25 39.6751 297.862 39.8477 298.611 39.8477C299.353 39.8477 299.961 39.6751 300.437 39.3301C300.918 38.985 301.273 38.4967 301.501 37.8652C301.729 37.2337 301.843 36.4883 301.843 35.6289C301.843 34.776 301.729 34.0404 301.501 33.4219C301.273 32.7969 300.922 32.3151 300.446 31.9766C299.971 31.638 299.356 31.4688 298.601 31.4688C297.488 31.4688 296.67 31.8366 296.15 32.5723C295.635 33.3079 295.378 34.3268 295.378 35.6289ZM311.424 30.1016C312.693 30.1016 313.654 30.4141 314.305 31.0391C314.956 31.6576 315.281 32.6536 315.281 34.0273V41H313.68V34.1348C313.68 33.2428 313.475 32.5755 313.064 32.1328C312.661 31.6901 312.039 31.4688 311.199 31.4688C310.014 31.4688 309.181 31.804 308.699 32.4746C308.217 33.1452 307.976 34.1185 307.976 35.3945V41H306.355V30.2969H307.664L307.908 31.8398H307.996C308.224 31.4622 308.514 31.1465 308.865 30.8926C309.217 30.6322 309.611 30.4368 310.047 30.3066C310.483 30.1699 310.942 30.1016 311.424 30.1016ZM325.497 25.8047V29.6035C325.497 30.0397 325.484 30.4629 325.458 30.873C325.439 31.2832 325.423 31.6022 325.41 31.8301H325.497C325.79 31.3483 326.214 30.9414 326.767 30.6094C327.32 30.2773 328.027 30.1113 328.886 30.1113C330.227 30.1113 331.295 30.5768 332.089 31.5078C332.89 32.4323 333.29 33.8092 333.29 35.6387C333.29 36.8431 333.108 37.8587 332.744 38.6855C332.379 39.5124 331.865 40.1374 331.201 40.5605C330.536 40.9837 329.752 41.1953 328.847 41.1953C328.001 41.1953 327.304 41.0391 326.757 40.7266C326.217 40.4076 325.8 40.0202 325.507 39.5645H325.38L325.048 41H323.876V25.8047H325.497ZM328.622 31.4688C327.848 31.4688 327.232 31.6217 326.777 31.9277C326.321 32.2272 325.992 32.6829 325.79 33.2949C325.595 33.9004 325.497 34.6686 325.497 35.5996V35.6875C325.497 37.0352 325.722 38.0671 326.171 38.7832C326.62 39.4928 327.438 39.8477 328.622 39.8477C329.619 39.8477 330.364 39.4831 330.859 38.7539C331.36 38.0247 331.611 36.9831 331.611 35.6289C331.611 34.2487 331.363 33.2103 330.869 32.5137C330.38 31.8171 329.632 31.4688 328.622 31.4688ZM341.016 30.1016C341.231 30.1016 341.455 30.1146 341.69 30.1406C341.924 30.1602 342.132 30.1895 342.315 30.2285L342.109 31.7324C341.934 31.6868 341.738 31.651 341.524 31.625C341.309 31.599 341.107 31.5859 340.918 31.5859C340.488 31.5859 340.081 31.6738 339.697 31.8496C339.32 32.0189 338.988 32.2663 338.701 32.5918C338.415 32.9108 338.19 33.2982 338.027 33.7539C337.865 34.2031 337.783 34.7044 337.783 35.2578V41H336.152V30.2969H337.5L337.676 32.2695H337.744C337.966 31.8724 338.232 31.5111 338.545 31.1855C338.857 30.8535 339.219 30.5898 339.629 30.3945C340.046 30.1992 340.508 30.1016 341.016 30.1016ZM348.487 30.1016C349.399 30.1016 350.18 30.3034 350.831 30.707C351.482 31.1107 351.98 31.6771 352.325 32.4062C352.67 33.1289 352.843 33.9753 352.843 34.9453V35.9512H345.45C345.47 37.2077 345.782 38.1647 346.387 38.8223C346.993 39.4798 347.846 39.8086 348.946 39.8086C349.623 39.8086 350.222 39.7467 350.743 39.623C351.264 39.4993 351.804 39.3171 352.364 39.0762V40.502C351.824 40.7428 351.287 40.9186 350.753 41.0293C350.225 41.14 349.6 41.1953 348.878 41.1953C347.849 41.1953 346.951 40.987 346.182 40.5703C345.421 40.1471 344.828 39.5286 344.405 38.7148C343.982 37.901 343.77 36.9049 343.77 35.7266C343.77 34.5742 343.962 33.5781 344.346 32.7383C344.737 31.8919 345.284 31.2409 345.987 30.7852C346.697 30.3294 347.53 30.1016 348.487 30.1016ZM348.468 31.4297C347.602 31.4297 346.912 31.7129 346.397 32.2793C345.883 32.8457 345.577 33.6367 345.479 34.6523H351.143C351.137 34.0143 351.036 33.4544 350.841 32.9727C350.652 32.4844 350.362 32.1068 349.971 31.8398C349.581 31.5664 349.08 31.4297 348.468 31.4297ZM359.63 30.1211C360.906 30.1211 361.854 30.4076 362.472 30.9805C363.091 31.5534 363.4 32.4681 363.4 33.7246V41H362.218L361.906 39.418H361.828C361.528 39.8086 361.216 40.1374 360.89 40.4043C360.565 40.6647 360.187 40.8633 359.757 41C359.334 41.1302 358.813 41.1953 358.195 41.1953C357.544 41.1953 356.964 41.0814 356.457 40.8535C355.955 40.6257 355.558 40.2806 355.265 39.8184C354.979 39.3561 354.835 38.7702 354.835 38.0605C354.835 36.9928 355.259 36.1725 356.105 35.5996C356.951 35.0267 358.24 34.7142 359.972 34.6621L361.818 34.584V33.9297C361.818 33.0052 361.619 32.3574 361.222 31.9863C360.825 31.6152 360.265 31.4297 359.542 31.4297C358.983 31.4297 358.449 31.5111 357.941 31.6738C357.433 31.8366 356.951 32.0286 356.496 32.25L355.998 31.0195C356.479 30.7721 357.033 30.5605 357.658 30.3848C358.283 30.209 358.94 30.1211 359.63 30.1211ZM361.798 35.7266L360.167 35.7949C358.833 35.847 357.892 36.0651 357.345 36.4492C356.798 36.8333 356.525 37.377 356.525 38.0801C356.525 38.6921 356.71 39.1445 357.082 39.4375C357.453 39.7305 357.944 39.877 358.556 39.877C359.507 39.877 360.285 39.6133 360.89 39.0859C361.496 38.5586 361.798 37.7676 361.798 36.7129V35.7266ZM368.381 25.8047V33.6953C368.381 33.9557 368.371 34.2747 368.352 34.6523C368.332 35.0234 368.316 35.3522 368.303 35.6387H368.371C368.508 35.4694 368.707 35.2188 368.967 34.8867C369.234 34.5547 369.459 34.2878 369.641 34.0859L373.196 30.2969H375.1L370.793 34.8672L375.412 41H373.459L369.68 35.9316L368.381 37.123V41H366.77V25.8047H368.381Z" fill="black"/>
<path d="M157.759 145.932C157.759 145.932 160.327 145.364 178.686 136.99C197.046 128.615 199.786 110.262 200.044 105.88C200.302 101.498 199.918 92.5621 196.847 85.2367C193.776 77.9113 187.065 67.7746 171.281 61.0827C155.496 54.3909 136.7 55.9879 136.7 55.9879C136.7 55.9879 124.304 49.2301 114.654 53.3086C105.005 57.387 95.726 70.0052 92.7279 74.275C89.7298 78.5449 89.4717 85.1113 89.4717 85.1113C89.4717 85.1113 87.7443 86.7678 82.1187 87.6587C78.4147 88.1597 74.6513 88.0078 71 87.21L78.6044 91.8296L76.2351 100.112C76.2351 100.112 81.4172 94.4364 82.6945 93.1627C83.9719 91.889 91.3844 89.9157 91.3844 89.9157C91.3844 89.9157 91.9602 91.0641 95.0906 93.4861C98.2211 95.9081 107.282 97.9539 122.993 99.2342C138.705 100.514 144.556 87.5531 145.555 85.1311C146.555 82.7091 147.13 81.8314 148.13 81.8314C152.342 81.6129 156.536 82.5131 160.285 84.4401C164.034 86.3672 167.202 89.2519 169.467 92.7997C169.467 92.7997 174.649 100.943 170.38 107.899C166.112 114.855 148.54 123.019 142.458 126.101C129.162 132.832 119.175 145.952 116.594 164.681C114.012 183.41 119.142 189 119.142 189C119.142 189 133.007 156.9 157.759 145.932Z" fill="#43449C"/>
<path d="M127.936 92.3628C130.601 91.738 132.424 89.802 132.008 88.0387C131.593 86.2753 129.095 85.3523 126.43 85.977C123.765 86.6018 121.942 88.5378 122.357 90.3012C122.773 92.0645 125.271 92.9876 127.936 92.3628Z" fill="white"/>
<path d="M234 168C239.523 168 244 163.523 244 158C244 152.477 239.523 148 234 148C228.477 148 224 152.477 224 158C224 163.523 228.477 168 234 168Z" fill="#43449C"/>
<path d="M64 48C77.2548 48 88 37.2548 88 24C88 10.7452 77.2548 0 64 0C50.7452 0 40 10.7452 40 24C40 37.2548 50.7452 48 64 48Z" fill="#ED2324"/>
<path d="M43.0153 111.565L40.7053 118.395C40.4294 119.212 40.3553 120.083 40.4894 120.935C40.6235 121.786 40.9618 122.593 41.4753 123.285L45.7853 129.055C46.3785 129.851 46.7374 130.796 46.8215 131.785C46.9056 132.774 46.7114 133.766 46.261 134.651C45.8106 135.535 45.1219 136.275 44.2726 136.789C43.4234 137.302 42.4475 137.568 41.4553 137.555L34.2553 137.465C33.3929 137.455 32.5409 137.654 31.7726 138.046C31.0044 138.438 30.3429 139.011 29.8453 139.715L25.6753 145.595C25.1021 146.405 24.3139 147.038 23.3999 147.423C22.4859 147.808 21.4823 147.93 20.5026 147.775C19.5229 147.62 18.6061 147.195 17.8556 146.546C17.105 145.898 16.5508 145.052 16.2553 144.105L14.1153 137.225C13.86 136.402 13.4079 135.652 12.7981 135.043C12.1882 134.433 11.4391 133.981 10.6153 133.725L3.73531 131.585C2.78846 131.29 1.94304 130.736 1.29455 129.985C0.646049 129.235 0.220291 128.318 0.0653282 127.338C-0.0896352 126.358 0.0323837 125.355 0.417593 124.441C0.802801 123.527 1.43584 122.739 2.24529 122.165L8.1253 118.005C8.82848 117.506 9.40043 116.845 9.79226 116.077C10.1841 115.309 10.3841 114.457 10.3753 113.595L10.2853 106.385C10.2731 105.393 10.5387 104.417 11.052 103.568C11.5653 102.719 12.3059 102.03 13.1901 101.58C14.0743 101.129 15.0668 100.935 16.0556 101.019C17.0443 101.103 17.9898 101.462 18.7853 102.055L24.5553 106.365C25.2493 106.876 26.0576 107.21 26.9098 107.337C27.762 107.464 28.6324 107.381 29.4453 107.095L36.2753 104.785C37.2188 104.46 38.2348 104.407 39.2068 104.633C40.1789 104.859 41.0676 105.354 41.7712 106.062C42.4748 106.77 42.9646 107.661 43.1847 108.635C43.4047 109.608 43.346 110.624 43.0153 111.565Z" fill="#F7991D"/>
<path d="M355.305 122.443L353.678 127.255C353.483 127.831 353.431 128.445 353.525 129.044C353.62 129.644 353.858 130.213 354.22 130.7L357.257 134.765C357.674 135.326 357.927 135.992 357.987 136.689C358.046 137.385 357.909 138.084 357.592 138.707C357.274 139.33 356.789 139.852 356.191 140.214C355.593 140.575 354.905 140.762 354.206 140.754L349.133 140.69C348.526 140.683 347.926 140.823 347.384 141.1C346.843 141.376 346.377 141.779 346.027 142.276L343.089 146.418C342.685 146.988 342.13 147.434 341.486 147.706C340.842 147.977 340.135 148.063 339.444 147.954C338.754 147.845 338.108 147.545 337.58 147.088C337.051 146.631 336.66 146.035 336.452 145.368L334.944 140.521C334.765 139.941 334.446 139.413 334.016 138.984C333.587 138.554 333.059 138.235 332.479 138.056L327.632 136.548C326.965 136.34 326.369 135.949 325.912 135.42C325.455 134.892 325.155 134.246 325.046 133.556C324.937 132.865 325.023 132.158 325.294 131.514C325.566 130.87 326.012 130.315 326.582 129.911L330.724 126.981C331.22 126.629 331.623 126.163 331.899 125.622C332.175 125.081 332.316 124.481 332.31 123.874L332.246 118.794C332.238 118.095 332.425 117.408 332.786 116.809C333.148 116.211 333.67 115.726 334.293 115.408C334.916 115.091 335.615 114.954 336.311 115.013C337.008 115.073 337.674 115.326 338.235 115.744L342.3 118.78C342.789 119.14 343.358 119.375 343.958 119.464C344.559 119.554 345.172 119.496 345.745 119.294L350.557 117.667C351.221 117.438 351.937 117.401 352.622 117.56C353.307 117.719 353.933 118.068 354.429 118.566C354.924 119.065 355.269 119.693 355.424 120.379C355.579 121.065 355.538 121.78 355.305 122.443Z" fill="#ED2324"/>
<path d="M255.34 122.84L308.14 102.46L287.81 85L235 105.38L255.34 122.84Z" fill="#F7991D"/>
</svg>
