<svg width="295" height="327" viewBox="0 0 295 327" fill="none" xmlns="http://www.w3.org/2000/svg">
<path d="M219.456 219.241C219.456 219.241 223.317 218.387 250.923 205.795C278.528 193.202 282.648 165.605 283.037 159.016C283.425 152.427 282.847 138.991 278.23 127.976C273.612 116.962 263.521 101.719 239.787 91.6572C216.052 81.595 187.79 83.9965 187.79 83.9965C187.79 83.9965 169.15 73.835 154.641 79.9676C140.131 86.1002 126.179 105.073 121.671 111.494C117.163 117.914 116.775 127.788 116.775 127.788C116.775 127.788 114.178 130.279 105.719 131.618C100.149 132.372 94.4902 132.143 89 130.943L100.434 137.89L96.8717 150.343C96.8717 150.343 104.664 141.809 106.584 139.894C108.505 137.979 119.651 135.012 119.651 135.012C119.651 135.012 120.517 136.739 125.224 140.38C129.931 144.022 143.555 147.099 167.18 149.024C190.805 150.949 199.602 131.459 201.105 127.818C202.608 124.176 203.473 122.856 204.976 122.856C211.309 122.527 217.616 123.881 223.253 126.779C228.89 129.676 233.655 134.014 237.06 139.348C237.06 139.348 244.852 151.594 238.433 162.053C232.015 172.512 205.593 184.787 196.448 189.421C176.455 199.543 161.438 219.271 157.557 247.433C153.676 275.595 161.388 284 161.388 284C161.388 284 182.237 235.733 219.456 219.241Z" fill="#43449C"/>
<path d="M174.606 138.691C178.613 137.752 181.355 134.841 180.73 132.189C180.105 129.538 176.349 128.15 172.342 129.09C168.335 130.029 165.593 132.94 166.218 135.591C166.843 138.243 170.598 139.631 174.606 138.691Z" fill="white"/>
<path d="M283 327C288.523 327 293 322.523 293 317C293 311.477 288.523 307 283 307C277.477 307 273 311.477 273 317C273 322.523 277.477 327 283 327Z" fill="#ED2324"/>
<path d="M126 256C132.627 256 138 250.627 138 244C138 237.373 132.627 232 126 232C119.373 232 114 237.373 114 244C114 250.627 119.373 256 126 256Z" fill="#F7991D"/>
<path d="M186 47C192.627 47 198 41.6274 198 35C198 28.3726 192.627 23 186 23C179.373 23 174 28.3726 174 35C174 41.6274 179.373 47 186 47Z" fill="#42449C"/>
<path d="M132.015 10.5653L129.705 17.3953C129.429 18.212 129.355 19.0834 129.489 19.9349C129.624 20.7865 129.962 21.5929 130.475 22.2853L134.785 28.0553C135.379 28.8508 135.737 29.7963 135.821 30.7851C135.906 31.7738 135.711 32.7663 135.261 33.6505C134.811 34.5347 134.122 35.2753 133.273 35.7886C132.423 36.3019 131.448 36.5675 130.455 36.5553L123.255 36.4653C122.393 36.4548 121.541 36.6541 120.773 37.0461C120.004 37.438 119.343 38.0109 118.845 38.7153L114.675 44.5953C114.102 45.4048 113.314 46.0378 112.4 46.423C111.486 46.8083 110.482 46.9303 109.503 46.7753C108.523 46.6203 107.606 46.1946 106.856 45.5461C106.105 44.8976 105.551 44.0522 105.255 43.1053L103.115 36.2253C102.86 35.4016 102.408 34.6524 101.798 34.0426C101.188 33.4328 100.439 32.9806 99.6153 32.7253L92.7353 30.5853C91.7885 30.2899 90.943 29.7356 90.2945 28.9851C89.646 28.2346 89.2203 27.3177 89.0653 26.338C88.9104 25.3583 89.0324 24.3548 89.4176 23.4407C89.8028 22.5267 90.4358 21.7386 91.2453 21.1653L97.1253 17.0053C97.8285 16.5065 98.4004 15.8448 98.7923 15.0768C99.1841 14.3089 99.3841 13.4574 99.3753 12.5953L99.2853 5.38532C99.2731 4.39309 99.5387 3.41724 100.052 2.56802C100.565 1.71879 101.306 1.03005 102.19 0.579627C103.074 0.129209 104.067 -0.0649355 105.056 0.0191261C106.044 0.103188 106.99 0.462114 107.785 1.05534L113.555 5.36533C114.249 5.87607 115.058 6.20954 115.91 6.33677C116.762 6.46399 117.632 6.38111 118.445 6.09533L125.275 3.78533C126.219 3.46019 127.235 3.40749 128.207 3.63329C129.179 3.85909 130.068 4.35424 130.771 5.06197C131.475 5.7697 131.965 6.66137 132.185 7.63474C132.405 8.60811 132.346 9.62379 132.015 10.5653Z" fill="#F7991D"/>
<path d="M275.305 44.4434L273.678 49.2553C273.483 49.8307 273.431 50.4446 273.525 51.0445C273.62 51.6444 273.858 52.2126 274.22 52.7004L277.257 56.7654C277.674 57.3259 277.927 57.992 277.987 58.6886C278.046 59.3852 277.909 60.0844 277.592 60.7074C277.274 61.3303 276.789 61.852 276.191 62.2137C275.593 62.5753 274.905 62.7624 274.206 62.7538L269.133 62.6904C268.526 62.683 267.926 62.8234 267.384 63.0996C266.843 63.3757 266.377 63.7793 266.027 64.2756L263.089 68.4181C262.685 68.9884 262.13 69.4344 261.486 69.7058C260.842 69.9772 260.135 70.0632 259.444 69.954C258.754 69.8448 258.108 69.5448 257.58 69.088C257.051 68.6311 256.66 68.0355 256.452 67.3684L254.944 62.5213C254.765 61.941 254.446 61.4132 254.016 60.9836C253.587 60.5539 253.059 60.2354 252.479 60.0555L247.632 58.5479C246.965 58.3397 246.369 57.9492 245.912 57.4205C245.455 56.8917 245.155 56.2458 245.046 55.5555C244.937 54.8653 245.023 54.1583 245.294 53.5144C245.566 52.8704 246.012 52.3152 246.582 51.9113L250.724 48.9805C251.22 48.6291 251.623 48.1629 251.899 47.6219C252.175 47.0808 252.316 46.481 252.31 45.8736L252.246 40.794C252.238 40.095 252.425 39.4075 252.786 38.8092C253.148 38.2109 253.67 37.7257 254.293 37.4084C254.916 37.091 255.615 36.9543 256.311 37.0135C257.008 37.0727 257.674 37.3256 258.235 37.7435L262.3 40.78C262.789 41.1398 263.358 41.3747 263.958 41.4644C264.559 41.554 265.172 41.4956 265.745 41.2943L270.557 39.6668C271.221 39.4378 271.937 39.4006 272.622 39.5597C273.307 39.7188 273.933 40.0676 274.429 40.5662C274.924 41.0649 275.269 41.693 275.424 42.3788C275.579 43.0646 275.538 43.7801 275.305 44.4434Z" fill="#43449C"/>
<path d="M111.305 291.443L109.678 296.255C109.483 296.831 109.431 297.445 109.525 298.044C109.62 298.644 109.858 299.213 110.22 299.7L113.257 303.765C113.674 304.326 113.927 304.992 113.987 305.689C114.046 306.385 113.909 307.084 113.592 307.707C113.274 308.33 112.789 308.852 112.191 309.214C111.593 309.575 110.905 309.762 110.206 309.754L105.133 309.69C104.526 309.683 103.926 309.823 103.384 310.1C102.843 310.376 102.377 310.779 102.027 311.276L99.0887 315.418C98.6848 315.988 98.1296 316.434 97.4856 316.706C96.8417 316.977 96.1347 317.063 95.4445 316.954C94.7542 316.845 94.1083 316.545 93.5795 316.088C93.0508 315.631 92.6603 315.035 92.4521 314.368L90.9445 309.521C90.7646 308.941 90.4461 308.413 90.0164 307.984C89.5868 307.554 89.059 307.235 88.4787 307.056L83.6316 305.548C82.9645 305.34 82.3689 304.949 81.912 304.42C81.4552 303.892 81.1552 303.246 81.046 302.556C80.9369 301.865 81.0228 301.158 81.2942 300.514C81.5656 299.87 82.0116 299.315 82.5818 298.911L86.7244 295.981C87.2198 295.629 87.6228 295.163 87.8988 294.622C88.1749 294.081 88.3158 293.481 88.3096 292.874L88.2462 287.794C88.2376 287.095 88.4247 286.408 88.7863 285.809C89.148 285.211 89.6697 284.726 90.2927 284.408C90.9156 284.091 91.6148 283.954 92.3114 284.013C93.008 284.073 93.6741 284.326 94.2346 284.744L98.2996 287.78C98.7885 288.14 99.358 288.375 99.9584 288.464C100.559 288.554 101.172 288.496 101.745 288.294L106.557 286.667C107.221 286.438 107.937 286.401 108.622 286.56C109.307 286.719 109.933 287.068 110.429 287.566C110.924 288.065 111.269 288.693 111.424 289.379C111.579 290.065 111.538 290.78 111.305 291.443Z" fill="#ED2324"/>
<path d="M241.34 298.84L294.14 278.46L273.81 261L221 281.38L241.34 298.84Z" fill="#F7991D"/>
<path d="M20.34 115.84L73.14 95.46L52.81 78L0 98.38L20.34 115.84Z" fill="#42449C"/>
<path d="M52.34 204.84L105.14 184.46L84.81 167L32 187.38L52.34 204.84Z" fill="#ED2324"/>
</svg>
