<svg width="113" height="116" viewBox="0 0 113 116" fill="none" xmlns="http://www.w3.org/2000/svg">
<path d="M18.9889 49.7871L19.6085 51.975C19.6827 52.2365 19.8123 52.4845 19.9862 52.6975C20.1602 52.9106 20.3734 53.0825 20.6075 53.1986L22.5657 54.1612C22.8354 54.2941 23.0767 54.501 23.2623 54.7585C23.4479 55.016 23.5703 55.314 23.6159 55.6186C23.6614 55.9233 23.6282 56.2225 23.5199 56.4825C23.4117 56.7425 23.2328 56.9529 23.0034 57.0899L21.3385 58.0838C21.1391 58.2029 20.9774 58.3777 20.8673 58.5932C20.7572 58.8087 20.702 59.0583 20.7065 59.3207L20.7401 61.5128C20.7449 61.8144 20.6708 62.0984 20.5262 62.3327C20.3816 62.5669 20.1722 62.7421 19.9216 62.8385C19.6711 62.9348 19.3894 62.9485 19.1083 62.8779C18.8272 62.8074 18.558 62.6554 18.3311 62.4392L16.6834 60.8671C16.4863 60.6788 16.2567 60.5386 16.0144 60.4586C15.7721 60.3787 15.5244 60.3615 15.2927 60.4084L13.3563 60.7985C13.0896 60.8519 12.8027 60.8204 12.5278 60.7076C12.253 60.5948 12.0012 60.4052 11.8009 60.1602C11.6006 59.9151 11.4597 59.6244 11.3943 59.3209C11.3288 59.0173 11.3412 58.713 11.4303 58.4423L12.0778 56.477C12.155 56.2416 12.1747 55.9804 12.1353 55.7157C12.0959 55.451 11.9985 55.1907 11.8515 54.9571L10.6181 53.0051C10.4483 52.7364 10.345 52.433 10.3198 52.1289C10.2946 51.8249 10.3484 51.5325 10.4752 51.2847C10.6021 51.0369 10.7968 50.8436 11.0375 50.7266C11.2782 50.6097 11.5552 50.5738 11.8373 50.6229L13.8844 50.9812C14.1293 51.0222 14.3706 50.9988 14.5873 50.9129C14.804 50.827 14.9895 50.6813 15.1276 50.4885L16.304 48.8929C16.4655 48.6709 16.6895 48.5128 16.9502 48.4368C17.2109 48.3609 17.4978 48.3701 17.7781 48.4634C18.0583 48.5568 18.3206 48.7304 18.5347 48.9645C18.7489 49.1987 18.9063 49.4837 18.9889 49.7871Z" fill="#42449C"/>
<path d="M89.2897 62.8011L89.9012 64.9919C89.9743 65.2541 90.1036 65.5027 90.2779 65.7161C90.4521 65.9295 90.666 66.1012 90.9008 66.2163L92.8619 67.1823C93.1318 67.3152 93.3733 67.5222 93.559 67.7799C93.7447 68.0376 93.8672 68.3357 93.9128 68.6406C93.9584 68.9454 93.9251 69.2449 93.8168 69.505C93.7085 69.7652 93.5294 69.9757 93.2999 70.1128L91.6317 71.1088C91.4316 71.2269 91.2693 71.4011 91.1588 71.6164C91.0483 71.8316 90.9929 72.0813 90.9976 72.3437L91.0421 74.5343C91.0469 74.8361 90.9728 75.1203 90.828 75.3547C90.6833 75.5891 90.4738 75.7644 90.223 75.8608C89.9723 75.9572 89.6905 75.9709 89.4092 75.9003C89.128 75.8297 88.8586 75.6777 88.6315 75.4613L86.9811 73.8855C86.7837 73.6974 86.5539 73.5575 86.3115 73.4775C86.0692 73.3976 85.8214 73.3801 85.5895 73.4265L83.6518 73.8168C83.385 73.8702 83.0979 73.8388 82.8229 73.7259C82.5478 73.613 82.2959 73.4233 82.0954 73.1781C81.895 72.9329 81.7541 72.642 81.6885 72.3383C81.623 72.0345 81.6355 71.73 81.7246 71.4591L82.3725 69.4926C82.4503 69.2572 82.4703 68.9957 82.4308 68.7308C82.3914 68.4658 82.2937 68.2053 82.1461 67.9716L80.9118 66.0184C80.7426 65.7499 80.6397 65.4467 80.6146 65.143C80.5896 64.8393 80.6433 64.5472 80.7699 64.2996C80.8965 64.052 81.0908 63.8587 81.331 63.7414C81.5713 63.6242 81.8478 63.5877 82.1296 63.6361L84.1803 63.9932C84.4256 64.0364 84.6679 64.0153 84.886 63.9317C85.1042 63.8482 85.2919 63.7048 85.4327 63.5138L86.6082 61.9145C86.7703 61.6949 86.9938 61.5388 87.2534 61.4638C87.513 61.3888 87.7984 61.3979 88.0773 61.4901C88.3562 61.5824 88.6176 61.754 88.8318 61.9857C89.0461 62.2173 89.2047 62.4998 89.2897 62.8011Z" fill="#42449C"/>
<path d="M79.0003 22.1365L79.6195 24.3255C79.6932 24.5875 79.8229 24.8358 79.9974 25.0488C80.1719 25.2619 80.3858 25.4332 80.6207 25.5479L82.5785 26.5136C82.8479 26.6466 83.0889 26.8535 83.2742 27.1109C83.4595 27.3683 83.5819 27.666 83.6274 27.9704C83.673 28.2748 83.6399 28.5738 83.532 28.8337C83.4241 29.0936 83.2456 29.3041 83.0166 29.4414L81.3526 30.4325C81.1527 30.5513 80.9907 30.7262 80.8807 30.9419C80.7706 31.1577 80.7157 31.4078 80.7209 31.6705L80.7579 33.8626C80.7624 34.1642 80.6881 34.4482 80.5432 34.6823C80.3983 34.9164 80.1887 35.0914 79.938 35.1875C79.6873 35.2836 79.4054 35.2971 79.1244 35.2263C78.8433 35.1555 78.5741 35.0033 78.3472 34.7869L76.6954 33.2173C76.4988 33.0281 76.2691 32.8874 76.0266 32.8074C75.7841 32.7274 75.5363 32.7107 75.3047 32.7586L73.3673 33.1471C73.1007 33.2007 72.8137 33.1695 72.5387 33.0569C72.2638 32.9443 72.0118 32.7548 71.8113 32.5099C71.6108 32.2649 71.4697 31.9743 71.4039 31.6707C71.3382 31.3671 71.3504 31.0627 71.4392 30.7918L72.088 28.8259C72.1665 28.5908 72.187 28.3294 72.1476 28.0643C72.1083 27.7993 72.0104 27.5387 71.8624 27.3052L70.6306 25.359C70.46 25.0905 70.356 24.7868 70.3304 24.4824C70.3047 24.1781 70.3584 23.8852 70.4854 23.6372C70.6125 23.3892 70.8077 23.1959 71.0489 23.0793C71.2901 22.9628 71.5676 22.9276 71.85 22.9778L73.8977 23.3332C74.143 23.3768 74.3852 23.356 74.6033 23.2724C74.8215 23.1889 75.0089 23.0452 75.1493 22.8538L76.3256 21.257C76.487 21.0378 76.7096 20.8818 76.9682 20.8067C77.2269 20.7315 77.5113 20.7402 77.7895 20.8316C78.0676 20.9231 78.3284 21.0937 78.5424 21.3243C78.7563 21.5549 78.9149 21.8362 79.0003 22.1365Z" fill="#F7991D"/>
<path d="M73.6039 97.884C75.5797 96.6643 76.0055 93.7707 74.555 91.4209C73.1045 89.0712 70.3268 88.1551 68.351 89.3748C66.3752 90.5945 65.9493 93.4881 67.3999 95.8379C68.8504 98.1877 71.6281 99.1037 73.6039 97.884Z" fill="#F7991D"/>
<path d="M53.1551 26.338L41.7679 15.2948L40.7471 22.2457L52.1326 33.2862L53.1551 26.338Z" fill="#ED2324"/>
<path d="M69.7666 72.9749C69.7666 72.9749 70.6091 72.4164 75.8808 66.6045C81.1525 60.7925 78.961 52.7198 78.2925 50.8416C77.6241 48.9634 75.9273 45.2467 73.526 42.5426C71.1246 39.8385 66.8993 36.4029 59.9477 35.5472C52.9961 34.6916 46.384 37.7025 46.384 37.7025C46.384 37.7025 40.6631 36.3975 37.836 39.3161C35.009 42.2346 33.8048 48.7047 33.4494 50.8765C33.0939 53.0483 34.1427 55.8467 34.1427 55.8467C34.1427 55.8467 33.798 56.7595 31.8909 57.8346C30.6203 58.5064 29.2143 58.9106 27.7369 59.0286L31.3289 60.0289L31.9026 63.8128C31.9026 63.8128 32.814 60.7772 33.0604 60.0817C33.3069 59.3862 35.6805 57.6328 35.6805 57.6328C35.6805 57.6328 36.0915 58.045 37.6609 58.6759C39.2302 59.3068 42.9078 59.0417 48.8904 57.6265C54.8729 56.2114 54.7605 50.0232 54.7051 48.8786C54.6497 47.7339 54.7079 47.2925 55.0743 47.1682C56.5802 46.5522 58.2746 46.4097 59.9844 46.7552C61.6942 47.1007 63.3581 47.9218 64.8061 49.1347C64.8061 49.1347 68.1239 51.9209 67.7703 55.3823C67.4167 58.8437 62.397 64.4687 60.704 66.5237C57.0022 71.0135 55.6258 77.783 57.9411 85.9945C60.2564 94.2059 63.11 95.9227 63.11 95.9227C63.11 95.9227 62.6029 80.6748 69.7666 72.9749Z" fill="#ED2324"/>
<path d="M47.1782 53.7329C48.1338 52.6986 48.3079 51.214 47.5672 50.4169C46.8265 49.6199 45.4514 49.8122 44.4958 50.8465C43.5403 51.8808 43.3661 53.3654 44.1068 54.1625C44.8475 54.9595 46.2226 54.7672 47.1782 53.7329Z" fill="white"/>
</svg>
