<svg width="93" height="87" viewBox="0 0 93 87" fill="none" xmlns="http://www.w3.org/2000/svg">
<path d="M13.775 17.3834L13.0353 19.5706C12.9469 19.8321 12.9232 20.1112 12.9661 20.3839C13.0091 20.6566 13.1174 20.9148 13.2818 21.1365L14.6621 22.9843C14.852 23.239 14.967 23.5418 14.9939 23.8584C15.0208 24.1751 14.9586 24.4929 14.8144 24.7761C14.6701 25.0592 14.4496 25.2964 14.1776 25.4608C13.9057 25.6251 13.5932 25.7102 13.2754 25.7063L10.9697 25.6775C10.6936 25.6741 10.4207 25.7379 10.1747 25.8634C9.92869 25.989 9.71687 26.1724 9.55751 26.398L8.22213 28.281C8.03855 28.5402 7.78616 28.7429 7.49346 28.8663C7.20076 28.9896 6.8794 29.0287 6.56566 28.9791C6.25193 28.9295 5.95831 28.7931 5.71797 28.5854C5.47763 28.3778 5.30013 28.107 5.20551 27.8038L4.52022 25.6006C4.43846 25.3368 4.29367 25.0969 4.09838 24.9016C3.9031 24.7063 3.66319 24.5616 3.39939 24.4798L1.19618 23.7945C0.892961 23.6999 0.62223 23.5224 0.414559 23.282C0.206887 23.0417 0.070545 22.7481 0.0209204 22.4343C-0.0287043 22.1206 0.0103704 21.7992 0.133728 21.5065C0.257085 21.2138 0.459807 20.9615 0.71902 20.7779L2.602 19.4457C2.82719 19.286 3.01035 19.0741 3.13582 18.8281C3.2613 18.5822 3.32536 18.3095 3.32253 18.0335L3.29371 15.7246C3.28981 15.4068 3.37485 15.0943 3.53923 14.8224C3.70361 14.5504 3.94079 14.3299 4.22394 14.1856C4.50708 14.0414 4.82492 13.9792 5.14155 14.0061C5.45818 14.033 5.76097 14.148 6.01571 14.338L7.86346 15.7182C8.0857 15.8817 8.34454 15.9885 8.61745 16.0293C8.89036 16.07 9.16909 16.0435 9.42941 15.9519L11.6166 15.2122C11.9187 15.1081 12.2441 15.0912 12.5554 15.1635C12.8667 15.2358 13.1513 15.3944 13.3766 15.621C13.6019 15.8477 13.7588 16.1332 13.8292 16.4449C13.8997 16.7566 13.8809 17.0819 13.775 17.3834Z" fill="#42449C"/>
<path d="M76.7838 65.3864L76.034 67.5718C75.9442 67.8333 75.9198 68.1128 75.9628 68.3859C76.0058 68.659 76.1149 68.9174 76.2807 69.1387L77.6618 70.9908C77.8519 71.2457 77.9669 71.5487 77.9939 71.8656C78.0208 72.1824 77.9586 72.5004 77.8143 72.7838C77.6699 73.0671 77.4492 73.3044 77.1771 73.4689C76.905 73.6334 76.5923 73.7185 76.2743 73.7146L73.964 73.6857C73.6877 73.6812 73.4146 73.7442 73.1683 73.8693C72.922 73.9944 72.71 74.1778 72.5508 74.4035L71.2274 76.2909C71.0437 76.5503 70.7911 76.7532 70.4983 76.8766C70.2054 77 69.8838 77.0391 69.5699 76.9895C69.2559 76.9398 68.9621 76.8034 68.7216 76.5956C68.4811 76.3878 68.3035 76.1169 68.2088 75.8135L67.5231 73.6056C67.4408 73.3419 67.2958 73.1021 67.1004 72.9068C66.9051 72.7114 66.6653 72.5664 66.4016 72.4841L64.1969 71.7984C63.8935 71.7037 63.6226 71.5261 63.4148 71.2856C63.207 71.0451 63.0706 70.7513 63.0209 70.4373C62.9713 70.1234 63.0104 69.8018 63.1338 69.5089C63.2572 69.2161 63.4601 68.9635 63.7195 68.7798L65.6037 67.4468C65.8294 67.2873 66.013 67.0754 66.1386 66.8292C66.2642 66.583 66.328 66.31 66.3247 66.0336L66.2958 63.7233C66.2924 63.4059 66.3776 63.0938 66.5419 62.8222C66.7063 62.5506 66.9432 62.3303 67.2259 62.1861C67.5087 62.0419 67.8261 61.9795 68.1425 62.0059C68.4588 62.0324 68.7615 62.1466 69.0164 62.3358L70.8685 63.7169C71.0899 63.8824 71.3482 63.9917 71.6211 64.0353C71.8941 64.0788 72.1736 64.0553 72.4355 63.9668L74.6241 63.2234C74.9253 63.1217 75.249 63.1062 75.5585 63.1787C75.8681 63.2513 76.1512 63.409 76.3758 63.634C76.6005 63.859 76.7577 64.1423 76.8298 64.4519C76.9019 64.7616 76.886 65.0853 76.7838 65.3864Z" fill="#42449C"/>
<path d="M91.7764 25.3809L91.0356 27.5688C90.9464 27.8304 90.9226 28.1099 90.9661 28.3828C91.0096 28.6557 91.1191 28.9139 91.2851 29.1349L92.6631 30.985C92.8526 31.2398 92.9672 31.5424 92.9939 31.8588C93.0207 32.1751 92.9585 32.4927 92.8145 32.7756C92.6704 33.0586 92.4502 33.2956 92.1786 33.4601C91.907 33.6246 91.5949 33.7099 91.2774 33.7065L88.9743 33.6758C88.6979 33.6719 88.4247 33.7356 88.1785 33.8614C87.9323 33.9871 87.7206 34.1712 87.5617 34.3974L86.2298 36.2821C86.0459 36.5412 85.7933 36.7437 85.5004 36.8668C85.2075 36.9899 84.8861 37.0287 84.5723 36.9788C84.2586 36.929 83.965 36.7923 83.7247 36.5845C83.4845 36.3766 83.3072 36.1057 83.2127 35.8023L82.5218 33.5991C82.4409 33.3348 82.2964 33.0944 82.101 32.899C81.9056 32.7036 81.6652 32.5591 81.401 32.4782L79.1977 31.7911C78.8943 31.6967 78.6234 31.5193 78.4155 31.2791C78.2077 31.0389 78.0711 30.7453 78.0212 30.4316C77.9713 30.1178 78.01 29.7963 78.1331 29.5035C78.2563 29.2106 78.4588 28.958 78.7179 28.7741L80.6026 27.4421C80.8288 27.2833 81.0128 27.0716 81.1386 26.8254C81.2644 26.5792 81.3281 26.306 81.3242 26.0296L81.2935 23.7265C81.2886 23.4084 81.3731 23.0954 81.5372 22.8229C81.7014 22.5504 81.9387 22.3294 82.2222 22.1851C82.5057 22.0408 82.824 21.9789 83.1409 22.0064C83.4578 22.0339 83.7606 22.1498 84.015 22.3408L85.8651 23.7188C86.0861 23.8848 86.3443 23.9943 86.6172 24.0378C86.8902 24.0813 87.1696 24.0574 87.4312 23.9683L89.6192 23.2275C89.9194 23.1258 90.2421 23.11 90.5508 23.1819C90.8595 23.2538 91.1419 23.4106 91.3663 23.6345C91.5906 23.8584 91.7479 24.1406 91.8204 24.4492C91.8928 24.7578 91.8776 25.0805 91.7764 25.3809Z" fill="#ED2324"/>
<path d="M39 87C41.7614 87 44 84.7614 44 82C44 79.2386 41.7614 77 39 77C36.2386 77 34 79.2386 34 82C34 84.7614 36.2386 87 39 87Z" fill="#F7991D"/>
<path d="M63 15.3784L58.3753 0L53 5.3784L57.6247 20.7537L63 15.3784Z" fill="#ED2324"/>
<path d="M50.6727 63.7879C50.6727 63.7879 51.8742 63.7552 60.8397 61.5788C69.8052 59.4025 72.6305 51.382 73.1274 49.4326C73.6242 47.4833 74.229 43.4294 73.4882 39.867C72.7473 36.3046 70.6177 31.1617 64.1175 26.782C57.6172 22.4023 49.0451 21.4911 49.0451 21.4911C49.0451 21.4911 44.0709 17.3755 39.3868 18.374C34.7027 19.3724 29.4423 24.2455 27.7258 25.9067C26.0094 27.568 25.3226 30.5003 25.3226 30.5003C25.3226 30.5003 24.4035 31.0958 21.802 31.0089C20.0966 30.9132 18.4212 30.5185 16.8523 29.8429L19.8625 32.5809L18.0793 36.1021C18.0793 36.1021 20.8979 33.9977 21.5818 33.5354C22.2656 33.073 25.763 32.8279 25.763 32.8279C25.763 32.8279 25.9215 33.3945 27.1154 34.7557C28.3094 36.1169 32.1967 37.8231 39.1348 39.7615C46.073 41.6999 49.825 36.3752 50.484 35.3721C51.143 34.3689 51.4777 34.0239 51.9261 34.1106C53.8349 34.3774 55.6386 35.1462 57.153 36.3383C58.6674 37.5305 59.8382 39.1032 60.5459 40.8959C60.5459 40.8959 62.1628 45.0096 59.6427 47.7693C57.1225 50.5289 48.5287 52.6785 45.5318 53.5379C38.9808 55.4138 33.3591 60.4512 30.5724 68.6547C27.7857 76.8582 29.6009 79.8181 29.6009 79.8181C29.6009 79.8181 38.6132 66.5769 50.6727 63.7879Z" fill="#F7991D"/>
<path d="M39.8321 35.5499C41.4452 35.1717 42.5489 33.9999 42.2973 32.9326C42.0456 31.8653 40.5339 31.3066 38.9208 31.6847C37.3077 32.0629 36.204 33.2347 36.4556 34.302C36.7073 35.3694 38.219 35.9281 39.8321 35.5499Z" fill="white"/>
</svg>
